<svg xmlns="http://www.w3.org/2000/svg" viewBox="0 0 1200 630" width="1200" height="630">
  <defs>
    <linearGradient id="bg" x1="0" y1="0" x2="1" y2="1">
      <stop offset="0" stop-color="#0a0e16"/>
      <stop offset="1" stop-color="#10151f"/>
    </linearGradient>
    <linearGradient id="acc" x1="0" y1="0" x2="1" y2="1">
      <stop offset="0" stop-color="#38d6f0"/>
      <stop offset="1" stop-color="#4f8cff"/>
    </linearGradient>
    <radialGradient id="glow" cx="80%" cy="0%" r="70%">
      <stop offset="0" stop-color="#4f8cff" stop-opacity="0.28"/>
      <stop offset="1" stop-color="#4f8cff" stop-opacity="0"/>
    </radialGradient>
  </defs>
  <rect width="1200" height="630" fill="url(#bg)"/>
  <rect width="1200" height="630" fill="url(#glow)"/>
  <g transform="translate(90,235)">
    <rect width="96" height="96" rx="22" fill="url(#acc)"/>
    <path d="M33 74V28h22c9 0 15 5.4 15 13.8 0 6.4-3.6 11-9.6 12.8L71 74H60l-9.2-17H46v17h-13zm13-25.4h11c4 0 6.4-2.3 6.4-5.9s-2.4-5.9-6.4-5.9H46v11.8z" fill="#041019"/>
  </g>
  <text x="210" y="298" fill="#eef2f8" font-family="Segoe UI, Helvetica, Arial, sans-serif" font-size="52" font-weight="700">Rapid Tech Plus</text>
  <text x="92" y="410" fill="#eef2f8" font-family="Segoe UI, Helvetica, Arial, sans-serif" font-size="66" font-weight="800" letter-spacing="-1">Modern software, built to scale.</text>
  <text x="92" y="470" fill="#9aa6b8" font-family="Segoe UI, Helvetica, Arial, sans-serif" font-size="32">Web platforms · SaaS products · digital systems for growing businesses</text>
  <rect x="92" y="520" width="120" height="6" rx="3" fill="url(#acc)"/>
</svg>
