<svg xmlns="http://www.w3.org/2000/svg" viewBox="0 0 1200 630" width="1200" height="630">
  <defs>
    <linearGradient id="bg" x1="0" y1="0" x2="1" y2="1">
      <stop offset="0" stop-color="#08080f"/>
      <stop offset="1" stop-color="#101020"/>
    </linearGradient>
    <linearGradient id="acc" x1="8" y1="88" x2="88" y2="8" gradientUnits="userSpaceOnUse">
      <stop offset="0" stop-color="#4f46e5"/>
      <stop offset="0.6" stop-color="#7c3aed"/>
      <stop offset="1" stop-color="#a855f7"/>
    </linearGradient>
    <radialGradient id="glow" cx="80%" cy="0%" r="70%">
      <stop offset="0" stop-color="#7c3aed" stop-opacity="0.34"/>
      <stop offset="1" stop-color="#7c3aed" stop-opacity="0"/>
    </radialGradient>
  </defs>
  <rect width="1200" height="630" fill="url(#bg)"/>
  <rect width="1200" height="630" fill="url(#glow)"/>
  <g transform="translate(90,235)">
    <rect width="96" height="96" rx="22" fill="url(#acc)"/>
    <path d="M26 72V24h20.7c8.4 0 14 5.1 14 12.9 0 5.9-3.2 10.2-8.6 12L62 72h-10.5l-8.1-15.6H36V72H26zm10-23.9h9.6c3.6 0 5.9-2.1 5.9-5.4s-2.3-5.3-5.9-5.3H36v10.7z" fill="#ffffff"/>
    <g fill="none" stroke="#ddd6ff" stroke-width="5" stroke-linecap="round" stroke-linejoin="round">
      <path d="M57 48 L75 30"/>
      <path d="M63 29.5 H76 V42"/>
    </g>
  </g>
  <text x="210" y="298" fill="#f2f1fb" font-family="Segoe UI, Helvetica, Arial, sans-serif" font-size="52" font-weight="700">Rapid Tech Plus</text>
  <text x="92" y="410" fill="#f2f1fb" font-family="Segoe UI, Helvetica, Arial, sans-serif" font-size="64" font-weight="800" letter-spacing="-1">Software that thinks ahead.</text>
  <text x="92" y="470" fill="#a8a6c4" font-family="Segoe UI, Helvetica, Arial, sans-serif" font-size="32">AI-first engineering · web platforms · SaaS · digital systems</text>
  <rect x="92" y="520" width="120" height="6" rx="3" fill="url(#acc)"/>
</svg>
